<svg xmlns="http://www.w3.org/2000/svg" xmlns:xlink="http://www.w3.org/1999/xlink" width="500" zoomAndPan="magnify" viewBox="0 0 375 374.999991" height="500" preserveAspectRatio="xMidYMid meet" version="1.0"><defs><g/><clipPath id="d01e64800c"><path d="M 0.28125 0.921875 L 342.519531 0.921875 L 342.519531 81 L 0.28125 81 Z M 0.28125 0.921875 " clip-rule="nonzero"/></clipPath><clipPath id="c3b141ba3a"><rect x="0" width="343" y="0" height="81"/></clipPath><clipPath id="a141c10498"><rect x="0" width="343" y="0" height="119"/></clipPath></defs><g transform="matrix(1, 0, 0, 1, 17, 127)"><g clip-path="url(#a141c10498)"><g clip-path="url(#d01e64800c)"><g><g clip-path="url(#c3b141ba3a)"><g fill="#004aad" fill-opacity="1"><g transform="translate(0.75763, 64.098899)"><g><path d="M 37.078125 -40.90625 C 37.078125 -40.050781 36.84375 -39.265625 36.375 -38.546875 L 23.03125 -19.46875 L 23.03125 -3.890625 C 23.03125 -2.785156 22.664062 -1.859375 21.9375 -1.109375 C 21.21875 -0.367188 20.347656 0 19.328125 0 C 18.265625 0 17.359375 -0.367188 16.609375 -1.109375 C 15.867188 -1.859375 15.5 -2.785156 15.5 -3.890625 L 15.5 -20.359375 L 2.234375 -37.96875 C 1.460938 -38.988281 1.078125 -39.988281 1.078125 -40.96875 C 1.078125 -42.070312 1.515625 -42.992188 2.390625 -43.734375 C 3.265625 -44.484375 4.191406 -44.859375 5.171875 -44.859375 C 6.359375 -44.859375 7.398438 -44.265625 8.296875 -43.078125 L 19.53125 -27.5625 L 30.0625 -42.953125 C 30.945312 -44.222656 32.007812 -44.859375 33.25 -44.859375 C 34.269531 -44.859375 35.160156 -44.472656 35.921875 -43.703125 C 36.691406 -42.941406 37.078125 -42.007812 37.078125 -40.90625 Z M 37.078125 -40.90625 "/></g></g></g><g fill="#004aad" fill-opacity="1"><g transform="translate(40.446696, 64.098899)"><g><path d="M 36.5 -44.734375 C 37.601562 -44.734375 38.492188 -44.367188 39.171875 -43.640625 C 39.859375 -42.921875 40.203125 -41.988281 40.203125 -40.84375 L 40.203125 -17.734375 C 40.203125 -14.203125 39.457031 -11.078125 37.96875 -8.359375 C 36.476562 -5.640625 34.390625 -3.515625 31.703125 -1.984375 C 29.023438 -0.453125 25.96875 0.3125 22.53125 0.3125 C 19.082031 0.3125 16.003906 -0.453125 13.296875 -1.984375 C 10.597656 -3.515625 8.503906 -5.640625 7.015625 -8.359375 C 5.523438 -11.078125 4.78125 -14.203125 4.78125 -17.734375 L 4.78125 -40.84375 C 4.78125 -41.945312 5.160156 -42.867188 5.921875 -43.609375 C 6.691406 -44.359375 7.675781 -44.734375 8.875 -44.734375 C 9.894531 -44.734375 10.785156 -44.359375 11.546875 -43.609375 C 12.316406 -42.867188 12.703125 -41.945312 12.703125 -40.84375 L 12.703125 -17.734375 C 12.703125 -15.691406 13.144531 -13.875 14.03125 -12.28125 C 14.925781 -10.6875 16.128906 -9.460938 17.640625 -8.609375 C 19.148438 -7.765625 20.78125 -7.34375 22.53125 -7.34375 C 24.351562 -7.34375 26.0625 -7.765625 27.65625 -8.609375 C 29.257812 -9.460938 30.535156 -10.6875 31.484375 -12.28125 C 32.441406 -13.875 32.921875 -15.691406 32.921875 -17.734375 L 32.921875 -40.84375 C 32.921875 -41.988281 33.238281 -42.921875 33.875 -43.640625 C 34.519531 -44.367188 35.394531 -44.734375 36.5 -44.734375 Z M 36.5 -44.734375 "/></g></g></g><g fill="#004aad" fill-opacity="1"><g transform="translate(87.090909, 64.098899)"><g><path d="M 37.71875 -24.125 C 38.820312 -24.125 39.734375 -23.75 40.453125 -23 C 41.179688 -22.257812 41.546875 -21.335938 41.546875 -20.234375 L 41.546875 -6.703125 C 41.546875 -5.210938 40.882812 -4.0625 39.5625 -3.25 C 35.394531 -0.65625 30.820312 0.640625 25.84375 0.640625 C 21.632812 0.640625 17.742188 -0.390625 14.171875 -2.453125 C 10.597656 -4.515625 7.765625 -7.300781 5.671875 -10.8125 C 3.585938 -14.320312 2.546875 -18.160156 2.546875 -22.328125 C 2.546875 -26.503906 3.585938 -30.34375 5.671875 -33.84375 C 7.765625 -37.351562 10.597656 -40.140625 14.171875 -42.203125 C 17.742188 -44.273438 21.632812 -45.3125 25.84375 -45.3125 C 30.050781 -45.3125 33.707031 -44.457031 36.8125 -42.75 C 37.457031 -42.414062 37.9375 -41.96875 38.25 -41.40625 C 38.570312 -40.851562 38.734375 -40.257812 38.734375 -39.625 C 38.734375 -38.5625 38.378906 -37.632812 37.671875 -36.84375 C 36.972656 -36.0625 36.113281 -35.671875 35.09375 -35.671875 C 34.457031 -35.671875 33.753906 -35.84375 32.984375 -36.1875 C 30.691406 -37.164062 28.3125 -37.65625 25.84375 -37.65625 C 23.125 -37.65625 20.613281 -36.960938 18.3125 -35.578125 C 16.019531 -34.191406 14.203125 -32.328125 12.859375 -29.984375 C 11.515625 -27.648438 10.84375 -25.097656 10.84375 -22.328125 C 10.84375 -19.566406 11.515625 -17.015625 12.859375 -14.671875 C 14.203125 -12.335938 16.019531 -10.476562 18.3125 -9.09375 C 20.613281 -7.707031 23.125 -7.015625 25.84375 -7.015625 C 27.03125 -7.015625 28.304688 -7.117188 29.671875 -7.328125 C 31.035156 -7.546875 32.226562 -7.828125 33.25 -8.171875 L 33.25 -16.46875 L 27.25 -16.46875 C 26.144531 -16.46875 25.21875 -16.828125 24.46875 -17.546875 C 23.726562 -18.273438 23.359375 -19.191406 23.359375 -20.296875 C 23.359375 -21.398438 23.726562 -22.3125 24.46875 -23.03125 C 25.21875 -23.757812 26.144531 -24.125 27.25 -24.125 Z M 37.71875 -24.125 "/></g></g></g><g fill="#004aad" fill-opacity="1"><g transform="translate(133.160845, 64.098899)"><g><path d="M 43.515625 -44.734375 C 44.578125 -44.734375 45.5 -44.359375 46.28125 -43.609375 C 47.070312 -42.867188 47.46875 -41.945312 47.46875 -40.84375 L 47.46875 -3.890625 C 47.46875 -2.785156 47.109375 -1.859375 46.390625 -1.109375 C 45.671875 -0.367188 44.710938 0 43.515625 0 C 42.328125 0 41.359375 -0.359375 40.609375 -1.078125 C 39.867188 -1.804688 39.5 -2.742188 39.5 -3.890625 L 39.5 -29.609375 L 28.96875 -13.53125 C 28.539062 -13.019531 28.050781 -12.601562 27.5 -12.28125 C 26.945312 -11.96875 26.375 -11.832031 25.78125 -11.875 C 25.226562 -11.832031 24.675781 -11.96875 24.125 -12.28125 C 23.570312 -12.601562 23.082031 -13.019531 22.65625 -13.53125 L 12.125 -30.1875 L 12.125 -3.890625 C 12.125 -2.742188 11.78125 -1.804688 11.09375 -1.078125 C 10.414062 -0.359375 9.523438 0 8.421875 0 C 7.359375 0 6.484375 -0.367188 5.796875 -1.109375 C 5.117188 -1.859375 4.78125 -2.785156 4.78125 -3.890625 L 4.78125 -40.84375 C 4.78125 -41.90625 5.171875 -42.816406 5.953125 -43.578125 C 6.742188 -44.347656 7.695312 -44.734375 8.8125 -44.734375 C 9.445312 -44.734375 10.082031 -44.570312 10.71875 -44.25 C 11.351562 -43.9375 11.84375 -43.523438 12.1875 -43.015625 L 26.09375 -21.625 L 40.390625 -43.015625 C 40.734375 -43.523438 41.191406 -43.9375 41.765625 -44.25 C 42.335938 -44.570312 42.921875 -44.734375 43.515625 -44.734375 Z M 43.515625 -44.734375 "/></g></g></g><g fill="#004aad" fill-opacity="1"><g transform="translate(187.079242, 64.098899)"><g><path d="M 12.765625 -3.890625 C 12.765625 -2.785156 12.359375 -1.859375 11.546875 -1.109375 C 10.742188 -0.367188 9.8125 0 8.75 0 C 7.59375 0 6.640625 -0.367188 5.890625 -1.109375 C 5.148438 -1.859375 4.78125 -2.785156 4.78125 -3.890625 L 4.78125 -40.78125 C 4.78125 -41.882812 5.160156 -42.804688 5.921875 -43.546875 C 6.691406 -44.296875 7.675781 -44.671875 8.875 -44.671875 C 9.9375 -44.671875 10.847656 -44.296875 11.609375 -43.546875 C 12.378906 -42.804688 12.765625 -41.882812 12.765625 -40.78125 Z M 12.765625 -3.890625 "/></g></g></g><g fill="#004aad" fill-opacity="1"><g transform="translate(206.28571, 64.098899)"><g><path d="M 38.671875 -44.671875 C 39.691406 -44.671875 40.519531 -44.328125 41.15625 -43.640625 C 41.789062 -42.960938 42.109375 -42.113281 42.109375 -41.09375 L 42.109375 -3.890625 C 42.109375 -2.785156 41.734375 -1.859375 40.984375 -1.109375 C 40.242188 -0.367188 39.320312 0 38.21875 0 C 37.625 0 37.039062 -0.09375 36.46875 -0.28125 C 35.894531 -0.476562 35.476562 -0.742188 35.21875 -1.078125 L 11.8125 -30.828125 L 11.8125 -3.578125 C 11.8125 -2.554688 11.476562 -1.703125 10.8125 -1.015625 C 10.15625 -0.335938 9.296875 0 8.234375 0 C 7.210938 0 6.378906 -0.335938 5.734375 -1.015625 C 5.097656 -1.703125 4.78125 -2.554688 4.78125 -3.578125 L 4.78125 -40.78125 C 4.78125 -41.882812 5.148438 -42.804688 5.890625 -43.546875 C 6.640625 -44.296875 7.566406 -44.671875 8.671875 -44.671875 C 9.316406 -44.671875 9.945312 -44.539062 10.5625 -44.28125 C 11.175781 -44.03125 11.632812 -43.691406 11.9375 -43.265625 L 35.15625 -13.65625 L 35.15625 -41.09375 C 35.15625 -42.113281 35.484375 -42.960938 36.140625 -43.640625 C 36.804688 -44.328125 37.648438 -44.671875 38.671875 -44.671875 Z M 38.671875 -44.671875 "/></g></g></g><g fill="#004aad" fill-opacity="1"><g transform="translate(254.844175, 64.098899)"><g><path d="M 23.921875 -44.671875 C 27.921875 -44.671875 31.359375 -43.679688 34.234375 -41.703125 C 37.109375 -39.722656 39.300781 -37.039062 40.8125 -33.65625 C 42.320312 -30.28125 43.078125 -26.503906 43.078125 -22.328125 C 43.078125 -18.160156 42.320312 -14.382812 40.8125 -11 C 39.300781 -7.625 37.109375 -4.945312 34.234375 -2.96875 C 31.359375 -0.988281 27.921875 0 23.921875 0 L 8.671875 0 C 7.566406 0 6.640625 -0.367188 5.890625 -1.109375 C 5.148438 -1.859375 4.78125 -2.785156 4.78125 -3.890625 L 4.78125 -40.78125 C 4.78125 -41.882812 5.148438 -42.804688 5.890625 -43.546875 C 6.640625 -44.296875 7.566406 -44.671875 8.671875 -44.671875 Z M 23.296875 -7.34375 C 27.117188 -7.34375 29.988281 -8.753906 31.90625 -11.578125 C 33.820312 -14.410156 34.78125 -17.992188 34.78125 -22.328125 C 34.78125 -26.671875 33.8125 -30.253906 31.875 -33.078125 C 29.9375 -35.910156 27.078125 -37.328125 23.296875 -37.328125 L 12.765625 -37.328125 L 12.765625 -7.34375 Z M 23.296875 -7.34375 "/></g></g></g><g fill="#004aad" fill-opacity="1"><g transform="translate(302.126487, 64.098899)"><g><path d="M 19.140625 0.640625 C 16.078125 0.640625 13.351562 0.257812 10.96875 -0.5 C 8.59375 -1.269531 6.363281 -2.570312 4.28125 -4.40625 C 3.125 -5.425781 2.546875 -6.550781 2.546875 -7.78125 C 2.546875 -8.757812 2.90625 -9.617188 3.625 -10.359375 C 4.351562 -11.109375 5.226562 -11.484375 6.25 -11.484375 C 7.0625 -11.484375 7.785156 -11.226562 8.421875 -10.71875 C 10.117188 -9.3125 11.773438 -8.289062 13.390625 -7.65625 C 15.015625 -7.019531 16.929688 -6.703125 19.140625 -6.703125 C 21.523438 -6.703125 23.578125 -7.234375 25.296875 -8.296875 C 27.023438 -9.359375 27.890625 -10.675781 27.890625 -12.25 C 27.890625 -14.164062 27.035156 -15.664062 25.328125 -16.75 C 23.628906 -17.832031 20.929688 -18.648438 17.234375 -19.203125 C 7.910156 -20.566406 3.25 -24.90625 3.25 -32.21875 C 3.25 -34.90625 3.953125 -37.238281 5.359375 -39.21875 C 6.765625 -41.195312 8.675781 -42.707031 11.09375 -43.75 C 13.519531 -44.789062 16.222656 -45.3125 19.203125 -45.3125 C 21.890625 -45.3125 24.410156 -44.90625 26.765625 -44.09375 C 29.128906 -43.28125 31.097656 -42.21875 32.671875 -40.90625 C 33.898438 -39.925781 34.515625 -38.796875 34.515625 -37.515625 C 34.515625 -36.535156 34.15625 -35.675781 33.4375 -34.9375 C 32.71875 -34.195312 31.867188 -33.828125 30.890625 -33.828125 C 30.242188 -33.828125 29.664062 -34.015625 29.15625 -34.390625 C 28.050781 -35.285156 26.507812 -36.101562 24.53125 -36.84375 C 22.550781 -37.59375 20.773438 -37.96875 19.203125 -37.96875 C 16.523438 -37.96875 14.453125 -37.46875 12.984375 -36.46875 C 11.515625 -35.46875 10.78125 -34.160156 10.78125 -32.546875 C 10.78125 -30.710938 11.535156 -29.328125 13.046875 -28.390625 C 14.554688 -27.460938 16.929688 -26.695312 20.171875 -26.09375 C 23.828125 -25.457031 26.75 -24.640625 28.9375 -23.640625 C 31.125 -22.640625 32.769531 -21.273438 33.875 -19.546875 C 34.988281 -17.828125 35.546875 -15.546875 35.546875 -12.703125 C 35.546875 -10.015625 34.789062 -7.660156 33.28125 -5.640625 C 31.769531 -3.617188 29.757812 -2.066406 27.25 -0.984375 C 24.738281 0.0976562 22.035156 0.640625 19.140625 0.640625 Z M 19.140625 0.640625 "/></g></g></g></g></g></g><g fill="#8d9092" fill-opacity="1"><g transform="translate(60.435454, 110.470469)"><g><path d="M 6.53125 -19.09375 L 6.53125 -13.34375 L 13.578125 -13.34375 C 14.140625 -13.34375 14.609375 -13.160156 14.984375 -12.796875 C 15.367188 -12.441406 15.5625 -11.984375 15.5625 -11.421875 C 15.5625 -10.941406 15.367188 -10.515625 14.984375 -10.140625 C 14.609375 -9.773438 14.140625 -9.59375 13.578125 -9.59375 L 6.53125 -9.59375 L 6.53125 -1.984375 C 6.53125 -1.421875 6.328125 -0.945312 5.921875 -0.5625 C 5.523438 -0.1875 5.050781 0 4.5 0 C 3.894531 0 3.398438 -0.179688 3.015625 -0.546875 C 2.640625 -0.921875 2.453125 -1.398438 2.453125 -1.984375 L 2.453125 -20.859375 C 2.453125 -21.421875 2.640625 -21.890625 3.015625 -22.265625 C 3.398438 -22.648438 3.875 -22.84375 4.4375 -22.84375 L 15.046875 -22.84375 C 15.609375 -22.84375 16.078125 -22.660156 16.453125 -22.296875 C 16.835938 -21.941406 17.03125 -21.484375 17.03125 -20.921875 C 17.03125 -20.441406 16.835938 -20.015625 16.453125 -19.640625 C 16.078125 -19.273438 15.609375 -19.09375 15.046875 -19.09375 Z M 6.53125 -19.09375 "/></g></g></g><g fill="#8d9092" fill-opacity="1"><g transform="translate(79.6262, 110.470469)"><g><path d="M 23.46875 -11.421875 C 23.46875 -9.265625 22.988281 -7.289062 22.03125 -5.5 C 21.070312 -3.707031 19.75 -2.285156 18.0625 -1.234375 C 16.375 -0.191406 14.476562 0.328125 12.375 0.328125 C 10.257812 0.328125 8.359375 -0.191406 6.671875 -1.234375 C 4.984375 -2.285156 3.664062 -3.707031 2.71875 -5.5 C 1.78125 -7.289062 1.3125 -9.265625 1.3125 -11.421875 C 1.3125 -13.578125 1.78125 -15.550781 2.71875 -17.34375 C 3.664062 -19.144531 4.984375 -20.566406 6.671875 -21.609375 C 8.359375 -22.648438 10.257812 -23.171875 12.375 -23.171875 C 14.476562 -23.171875 16.375 -22.648438 18.0625 -21.609375 C 19.75 -20.566406 21.070312 -19.144531 22.03125 -17.34375 C 22.988281 -15.550781 23.46875 -13.578125 23.46875 -11.421875 Z M 19.21875 -11.421875 C 19.21875 -12.878906 18.925781 -14.203125 18.34375 -15.390625 C 17.757812 -16.578125 16.941406 -17.519531 15.890625 -18.21875 C 14.847656 -18.914062 13.675781 -19.265625 12.375 -19.265625 C 11.039062 -19.265625 9.859375 -18.921875 8.828125 -18.234375 C 7.796875 -17.546875 6.988281 -16.601562 6.40625 -15.40625 C 5.832031 -14.207031 5.546875 -12.878906 5.546875 -11.421875 C 5.546875 -9.960938 5.832031 -8.632812 6.40625 -7.4375 C 6.988281 -6.238281 7.796875 -5.296875 8.828125 -4.609375 C 9.859375 -3.929688 11.039062 -3.59375 12.375 -3.59375 C 13.675781 -3.59375 14.847656 -3.9375 15.890625 -4.625 C 16.941406 -5.320312 17.757812 -6.265625 18.34375 -7.453125 C 18.925781 -8.640625 19.21875 -9.960938 19.21875 -11.421875 Z M 19.21875 -11.421875 "/></g></g></g><g fill="#8d9092" fill-opacity="1"><g transform="translate(105.246438, 110.470469)"><g><path d="M 18.671875 -22.875 C 19.234375 -22.875 19.6875 -22.6875 20.03125 -22.3125 C 20.382812 -21.945312 20.5625 -21.472656 20.5625 -20.890625 L 20.5625 -9.078125 C 20.5625 -7.265625 20.179688 -5.660156 19.421875 -4.265625 C 18.660156 -2.878906 17.59375 -1.796875 16.21875 -1.015625 C 14.851562 -0.234375 13.285156 0.15625 11.515625 0.15625 C 9.753906 0.15625 8.179688 -0.234375 6.796875 -1.015625 C 5.421875 -1.796875 4.351562 -2.878906 3.59375 -4.265625 C 2.832031 -5.660156 2.453125 -7.265625 2.453125 -9.078125 L 2.453125 -20.890625 C 2.453125 -21.453125 2.644531 -21.921875 3.03125 -22.296875 C 3.425781 -22.679688 3.925781 -22.875 4.53125 -22.875 C 5.0625 -22.875 5.519531 -22.679688 5.90625 -22.296875 C 6.300781 -21.921875 6.5 -21.453125 6.5 -20.890625 L 6.5 -9.078125 C 6.5 -8.023438 6.722656 -7.09375 7.171875 -6.28125 C 7.628906 -5.46875 8.242188 -4.84375 9.015625 -4.40625 C 9.796875 -3.96875 10.628906 -3.75 11.515625 -3.75 C 12.453125 -3.75 13.328125 -3.96875 14.140625 -4.40625 C 14.960938 -4.84375 15.617188 -5.46875 16.109375 -6.28125 C 16.597656 -7.09375 16.84375 -8.023438 16.84375 -9.078125 L 16.84375 -20.890625 C 16.84375 -21.472656 17.003906 -21.945312 17.328125 -22.3125 C 17.660156 -22.6875 18.109375 -22.875 18.671875 -22.875 Z M 18.671875 -22.875 "/></g></g></g><g fill="#8d9092" fill-opacity="1"><g transform="translate(129.104274, 110.470469)"><g><path d="M 19.78125 -22.84375 C 20.300781 -22.84375 20.722656 -22.664062 21.046875 -22.3125 C 21.378906 -21.96875 21.546875 -21.535156 21.546875 -21.015625 L 21.546875 -1.984375 C 21.546875 -1.421875 21.351562 -0.945312 20.96875 -0.5625 C 20.59375 -0.1875 20.117188 0 19.546875 0 C 19.242188 0 18.945312 -0.046875 18.65625 -0.140625 C 18.363281 -0.242188 18.148438 -0.382812 18.015625 -0.5625 L 6.03125 -15.765625 L 6.03125 -1.828125 C 6.03125 -1.304688 5.863281 -0.867188 5.53125 -0.515625 C 5.195312 -0.171875 4.753906 0 4.203125 0 C 3.679688 0 3.257812 -0.171875 2.9375 -0.515625 C 2.613281 -0.867188 2.453125 -1.304688 2.453125 -1.828125 L 2.453125 -20.859375 C 2.453125 -21.421875 2.640625 -21.890625 3.015625 -22.265625 C 3.398438 -22.648438 3.875 -22.84375 4.4375 -22.84375 C 4.757812 -22.84375 5.078125 -22.773438 5.390625 -22.640625 C 5.710938 -22.515625 5.953125 -22.34375 6.109375 -22.125 L 17.984375 -6.984375 L 17.984375 -21.015625 C 17.984375 -21.535156 18.148438 -21.96875 18.484375 -22.3125 C 18.828125 -22.664062 19.257812 -22.84375 19.78125 -22.84375 Z M 19.78125 -22.84375 "/></g></g></g><g fill="#8d9092" fill-opacity="1"><g transform="translate(153.941214, 110.470469)"><g><path d="M 12.234375 -22.84375 C 14.285156 -22.84375 16.046875 -22.335938 17.515625 -21.328125 C 18.984375 -20.316406 20.101562 -18.945312 20.875 -17.21875 C 21.644531 -15.488281 22.03125 -13.554688 22.03125 -11.421875 C 22.03125 -9.285156 21.644531 -7.351562 20.875 -5.625 C 20.101562 -3.894531 18.984375 -2.523438 17.515625 -1.515625 C 16.046875 -0.503906 14.285156 0 12.234375 0 L 4.4375 0 C 3.875 0 3.398438 -0.1875 3.015625 -0.5625 C 2.640625 -0.945312 2.453125 -1.421875 2.453125 -1.984375 L 2.453125 -20.859375 C 2.453125 -21.421875 2.640625 -21.890625 3.015625 -22.265625 C 3.398438 -22.648438 3.875 -22.84375 4.4375 -22.84375 Z M 11.90625 -3.75 C 13.863281 -3.75 15.332031 -4.472656 16.3125 -5.921875 C 17.300781 -7.367188 17.796875 -9.203125 17.796875 -11.421875 C 17.796875 -13.640625 17.296875 -15.472656 16.296875 -16.921875 C 15.304688 -18.367188 13.84375 -19.09375 11.90625 -19.09375 L 6.53125 -19.09375 L 6.53125 -3.75 Z M 11.90625 -3.75 "/></g></g></g><g fill="#8d9092" fill-opacity="1"><g transform="translate(178.125426, 110.470469)"><g><path d="M 20.375 -2.546875 C 20.476562 -2.265625 20.53125 -2.003906 20.53125 -1.765625 C 20.53125 -1.191406 20.34375 -0.726562 19.96875 -0.375 C 19.601562 -0.0195312 19.179688 0.15625 18.703125 0.15625 C 18.304688 0.15625 17.953125 0.0351562 17.640625 -0.203125 C 17.328125 -0.441406 17.082031 -0.765625 16.90625 -1.171875 L 15.203125 -5.125 L 5.484375 -5.125 L 3.78125 -1.140625 C 3.632812 -0.722656 3.398438 -0.398438 3.078125 -0.171875 C 2.765625 0.046875 2.425781 0.15625 2.0625 0.15625 C 1.488281 0.15625 1.054688 0.00390625 0.765625 -0.296875 C 0.472656 -0.597656 0.328125 -1.007812 0.328125 -1.53125 C 0.328125 -1.726562 0.359375 -1.9375 0.421875 -2.15625 L 8.546875 -21.671875 C 8.722656 -22.109375 8.984375 -22.445312 9.328125 -22.6875 C 9.679688 -22.925781 10.078125 -23.023438 10.515625 -22.984375 C 10.898438 -22.984375 11.257812 -22.867188 11.59375 -22.640625 C 11.9375 -22.410156 12.1875 -22.085938 12.34375 -21.671875 Z M 7.078125 -8.875 L 13.609375 -8.875 L 10.3125 -16.515625 Z M 7.078125 -8.875 "/></g></g></g><g fill="#8d9092" fill-opacity="1"><g transform="translate(199.829223, 110.470469)"><g><path d="M 17.46875 -22.84375 C 18.050781 -22.84375 18.523438 -22.664062 18.890625 -22.3125 C 19.265625 -21.96875 19.453125 -21.515625 19.453125 -20.953125 C 19.453125 -20.390625 19.265625 -19.9375 18.890625 -19.59375 C 18.523438 -19.257812 18.050781 -19.09375 17.46875 -19.09375 L 12.34375 -19.09375 L 12.34375 -1.984375 C 12.34375 -1.421875 12.132812 -0.945312 11.71875 -0.5625 C 11.300781 -0.1875 10.789062 0 10.1875 0 C 9.570312 0 9.066406 -0.1875 8.671875 -0.5625 C 8.285156 -0.945312 8.09375 -1.421875 8.09375 -1.984375 L 8.09375 -19.09375 L 2.96875 -19.09375 C 2.382812 -19.09375 1.90625 -19.265625 1.53125 -19.609375 C 1.164062 -19.960938 0.984375 -20.421875 0.984375 -20.984375 C 0.984375 -21.523438 1.171875 -21.96875 1.546875 -22.3125 C 1.929688 -22.664062 2.40625 -22.84375 2.96875 -22.84375 Z M 17.46875 -22.84375 "/></g></g></g><g fill="#8d9092" fill-opacity="1"><g transform="translate(221.108735, 110.470469)"><g><path d="M 6.53125 -1.984375 C 6.53125 -1.421875 6.320312 -0.945312 5.90625 -0.5625 C 5.488281 -0.1875 5.007812 0 4.46875 0 C 3.882812 0 3.398438 -0.1875 3.015625 -0.5625 C 2.640625 -0.945312 2.453125 -1.421875 2.453125 -1.984375 L 2.453125 -20.859375 C 2.453125 -21.421875 2.644531 -21.890625 3.03125 -22.265625 C 3.425781 -22.648438 3.925781 -22.84375 4.53125 -22.84375 C 5.082031 -22.84375 5.550781 -22.648438 5.9375 -22.265625 C 6.332031 -21.890625 6.53125 -21.421875 6.53125 -20.859375 Z M 6.53125 -1.984375 "/></g></g></g><g fill="#8d9092" fill-opacity="1"><g transform="translate(230.932677, 110.470469)"><g><path d="M 23.46875 -11.421875 C 23.46875 -9.265625 22.988281 -7.289062 22.03125 -5.5 C 21.070312 -3.707031 19.75 -2.285156 18.0625 -1.234375 C 16.375 -0.191406 14.476562 0.328125 12.375 0.328125 C 10.257812 0.328125 8.359375 -0.191406 6.671875 -1.234375 C 4.984375 -2.285156 3.664062 -3.707031 2.71875 -5.5 C 1.78125 -7.289062 1.3125 -9.265625 1.3125 -11.421875 C 1.3125 -13.578125 1.78125 -15.550781 2.71875 -17.34375 C 3.664062 -19.144531 4.984375 -20.566406 6.671875 -21.609375 C 8.359375 -22.648438 10.257812 -23.171875 12.375 -23.171875 C 14.476562 -23.171875 16.375 -22.648438 18.0625 -21.609375 C 19.75 -20.566406 21.070312 -19.144531 22.03125 -17.34375 C 22.988281 -15.550781 23.46875 -13.578125 23.46875 -11.421875 Z M 19.21875 -11.421875 C 19.21875 -12.878906 18.925781 -14.203125 18.34375 -15.390625 C 17.757812 -16.578125 16.941406 -17.519531 15.890625 -18.21875 C 14.847656 -18.914062 13.675781 -19.265625 12.375 -19.265625 C 11.039062 -19.265625 9.859375 -18.921875 8.828125 -18.234375 C 7.796875 -17.546875 6.988281 -16.601562 6.40625 -15.40625 C 5.832031 -14.207031 5.546875 -12.878906 5.546875 -11.421875 C 5.546875 -9.960938 5.832031 -8.632812 6.40625 -7.4375 C 6.988281 -6.238281 7.796875 -5.296875 8.828125 -4.609375 C 9.859375 -3.929688 11.039062 -3.59375 12.375 -3.59375 C 13.675781 -3.59375 14.847656 -3.9375 15.890625 -4.625 C 16.941406 -5.320312 17.757812 -6.265625 18.34375 -7.453125 C 18.925781 -8.640625 19.21875 -9.960938 19.21875 -11.421875 Z M 19.21875 -11.421875 "/></g></g></g><g fill="#8d9092" fill-opacity="1"><g transform="translate(256.552915, 110.470469)"><g><path d="M 19.78125 -22.84375 C 20.300781 -22.84375 20.722656 -22.664062 21.046875 -22.3125 C 21.378906 -21.96875 21.546875 -21.535156 21.546875 -21.015625 L 21.546875 -1.984375 C 21.546875 -1.421875 21.351562 -0.945312 20.96875 -0.5625 C 20.59375 -0.1875 20.117188 0 19.546875 0 C 19.242188 0 18.945312 -0.046875 18.65625 -0.140625 C 18.363281 -0.242188 18.148438 -0.382812 18.015625 -0.5625 L 6.03125 -15.765625 L 6.03125 -1.828125 C 6.03125 -1.304688 5.863281 -0.867188 5.53125 -0.515625 C 5.195312 -0.171875 4.753906 0 4.203125 0 C 3.679688 0 3.257812 -0.171875 2.9375 -0.515625 C 2.613281 -0.867188 2.453125 -1.304688 2.453125 -1.828125 L 2.453125 -20.859375 C 2.453125 -21.421875 2.640625 -21.890625 3.015625 -22.265625 C 3.398438 -22.648438 3.875 -22.84375 4.4375 -22.84375 C 4.757812 -22.84375 5.078125 -22.773438 5.390625 -22.640625 C 5.710938 -22.515625 5.953125 -22.34375 6.109375 -22.125 L 17.984375 -6.984375 L 17.984375 -21.015625 C 17.984375 -21.535156 18.148438 -21.96875 18.484375 -22.3125 C 18.828125 -22.664062 19.257812 -22.84375 19.78125 -22.84375 Z M 19.78125 -22.84375 "/></g></g></g></g></g></svg>