<svg xmlns="http://www.w3.org/2000/svg" xmlns:xlink="http://www.w3.org/1999/xlink" width="3333" zoomAndPan="magnify" viewBox="0 0 2499.75 562.499983" height="750" preserveAspectRatio="xMidYMid meet" version="1.0"><defs><g/><clipPath id="2e5f1c9b06"><path d="M 0.359375 0 L 1726.34375 0 L 1726.34375 386 L 0.359375 386 Z M 0.359375 0 " clip-rule="nonzero"/></clipPath><clipPath id="67db1c6e59"><rect x="0" width="1727" y="0" height="386"/></clipPath><clipPath id="0b0b34f1b1"><rect x="0" width="1727" y="0" height="562"/></clipPath></defs><g transform="matrix(1, 0, 0, 1, 391, 0)"><g clip-path="url(#0b0b34f1b1)"><g clip-path="url(#2e5f1c9b06)"><g transform="matrix(1, 0, 0, 1, -0.000000000000113687, 0)"><g clip-path="url(#67db1c6e59)"><g fill="#ffca22" fill-opacity="1"><g transform="translate(0.985087, 304.48593)"><g><path d="M 187.359375 -206.71875 C 187.359375 -202.414062 186.175781 -198.4375 183.8125 -194.78125 L 116.421875 -98.359375 L 116.421875 -19.671875 C 116.421875 -14.078125 114.59375 -9.398438 110.9375 -5.640625 C 107.28125 -1.878906 102.875 0 97.71875 0 C 92.34375 0 87.769531 -1.878906 84 -5.640625 C 80.238281 -9.398438 78.359375 -14.078125 78.359375 -19.671875 L 78.359375 -102.875 L 11.28125 -191.875 C 7.414062 -197.039062 5.484375 -202.09375 5.484375 -207.03125 C 5.484375 -212.625 7.6875 -217.300781 12.09375 -221.0625 C 16.5 -224.820312 21.175781 -226.703125 26.125 -226.703125 C 32.144531 -226.703125 37.410156 -223.691406 41.921875 -217.671875 L 98.6875 -139.3125 L 151.890625 -217.03125 C 156.398438 -223.476562 161.773438 -226.703125 168.015625 -226.703125 C 173.171875 -226.703125 177.679688 -224.765625 181.546875 -220.890625 C 185.421875 -217.023438 187.359375 -212.300781 187.359375 -206.71875 Z M 187.359375 -206.71875 "/></g></g></g><g fill="#ffca22" fill-opacity="1"><g transform="translate(201.558336, 304.48593)"><g><path d="M 184.46875 -226.0625 C 190.050781 -226.0625 194.5625 -224.234375 198 -220.578125 C 201.445312 -216.921875 203.171875 -212.191406 203.171875 -206.390625 L 203.171875 -89.65625 C 203.171875 -71.8125 199.40625 -56.007812 191.875 -42.25 C 184.351562 -28.488281 173.816406 -17.738281 160.265625 -10 C 146.722656 -2.257812 131.25 1.609375 113.84375 1.609375 C 96.425781 1.609375 80.890625 -2.257812 67.234375 -10 C 53.585938 -17.738281 43 -28.488281 35.46875 -42.25 C 27.945312 -56.007812 24.1875 -71.8125 24.1875 -89.65625 L 24.1875 -206.390625 C 24.1875 -211.984375 26.117188 -216.660156 29.984375 -220.421875 C 33.859375 -224.179688 38.804688 -226.0625 44.828125 -226.0625 C 49.984375 -226.0625 54.492188 -224.179688 58.359375 -220.421875 C 62.234375 -216.660156 64.171875 -211.984375 64.171875 -206.390625 L 64.171875 -89.65625 C 64.171875 -79.332031 66.425781 -70.140625 70.9375 -62.078125 C 75.457031 -54.015625 81.53125 -47.832031 89.15625 -43.53125 C 96.789062 -39.226562 105.019531 -37.078125 113.84375 -37.078125 C 123.082031 -37.078125 131.734375 -39.226562 139.796875 -43.53125 C 147.859375 -47.832031 154.304688 -54.015625 159.140625 -62.078125 C 163.984375 -70.140625 166.40625 -79.332031 166.40625 -89.65625 L 166.40625 -206.390625 C 166.40625 -212.191406 168.015625 -216.921875 171.234375 -220.578125 C 174.460938 -224.234375 178.875 -226.0625 184.46875 -226.0625 Z M 184.46875 -226.0625 "/></g></g></g><g fill="#ffca22" fill-opacity="1"><g transform="translate(437.280107, 304.48593)"><g><path d="M 190.59375 -121.90625 C 196.175781 -121.90625 200.796875 -120.019531 204.453125 -116.25 C 208.109375 -112.488281 209.9375 -107.816406 209.9375 -102.234375 L 209.9375 -33.859375 C 209.9375 -26.335938 206.601562 -20.535156 199.9375 -16.453125 C 178.875 -3.335938 155.765625 3.21875 130.609375 3.21875 C 109.328125 3.21875 89.65625 -1.992188 71.59375 -12.421875 C 53.53125 -22.847656 39.234375 -36.925781 28.703125 -54.65625 C 18.171875 -72.394531 12.90625 -91.800781 12.90625 -112.875 C 12.90625 -133.9375 18.171875 -153.335938 28.703125 -171.078125 C 39.234375 -188.816406 53.53125 -202.898438 71.59375 -213.328125 C 89.65625 -223.753906 109.328125 -228.96875 130.609375 -228.96875 C 151.890625 -228.96875 170.378906 -224.664062 186.078125 -216.0625 C 189.296875 -214.34375 191.710938 -212.082031 193.328125 -209.28125 C 194.941406 -206.488281 195.75 -203.484375 195.75 -200.265625 C 195.75 -194.890625 193.972656 -190.210938 190.421875 -186.234375 C 186.878906 -182.253906 182.523438 -180.265625 177.359375 -180.265625 C 174.140625 -180.265625 170.59375 -181.125 166.71875 -182.84375 C 155.113281 -187.789062 143.078125 -190.265625 130.609375 -190.265625 C 116.847656 -190.265625 104.160156 -186.769531 92.546875 -179.78125 C 80.941406 -172.789062 71.753906 -163.382812 64.984375 -151.5625 C 58.210938 -139.738281 54.828125 -126.84375 54.828125 -112.875 C 54.828125 -98.894531 58.210938 -85.992188 64.984375 -74.171875 C 71.753906 -62.347656 80.941406 -52.941406 92.546875 -45.953125 C 104.160156 -38.960938 116.847656 -35.46875 130.609375 -35.46875 C 136.628906 -35.46875 143.078125 -36.003906 149.953125 -37.078125 C 156.835938 -38.160156 162.859375 -39.5625 168.015625 -41.28125 L 168.015625 -83.203125 L 137.703125 -83.203125 C 132.109375 -83.203125 127.429688 -85.03125 123.671875 -88.6875 C 119.910156 -92.34375 118.03125 -96.960938 118.03125 -102.546875 C 118.03125 -108.140625 119.910156 -112.765625 123.671875 -116.421875 C 127.429688 -120.078125 132.109375 -121.90625 137.703125 -121.90625 Z M 190.59375 -121.90625 "/></g></g></g><g fill="#ffca22" fill-opacity="1"><g transform="translate(670.099746, 304.48593)"><g><path d="M 219.9375 -226.0625 C 225.3125 -226.0625 229.984375 -224.179688 233.953125 -220.421875 C 237.929688 -216.660156 239.921875 -211.984375 239.921875 -206.390625 L 239.921875 -19.671875 C 239.921875 -14.078125 238.09375 -9.398438 234.4375 -5.640625 C 230.789062 -1.878906 225.957031 0 219.9375 0 C 213.914062 0 209.023438 -1.828125 205.265625 -5.484375 C 201.503906 -9.140625 199.625 -13.867188 199.625 -19.671875 L 199.625 -149.625 L 146.40625 -68.359375 C 144.257812 -65.785156 141.785156 -63.691406 138.984375 -62.078125 C 136.191406 -60.460938 133.289062 -59.765625 130.28125 -59.984375 C 127.488281 -59.765625 124.691406 -60.460938 121.890625 -62.078125 C 119.097656 -63.691406 116.628906 -65.785156 114.484375 -68.359375 L 61.265625 -152.53125 L 61.265625 -19.671875 C 61.265625 -13.867188 59.546875 -9.140625 56.109375 -5.484375 C 52.671875 -1.828125 48.15625 0 42.5625 0 C 37.1875 0 32.78125 -1.878906 29.34375 -5.640625 C 25.90625 -9.398438 24.1875 -14.078125 24.1875 -19.671875 L 24.1875 -206.390625 C 24.1875 -211.765625 26.175781 -216.382812 30.15625 -220.25 C 34.132812 -224.125 38.914062 -226.0625 44.5 -226.0625 C 47.726562 -226.0625 50.953125 -225.253906 54.171875 -223.640625 C 57.398438 -222.023438 59.875 -219.929688 61.59375 -217.359375 L 131.890625 -109.328125 L 204.125 -217.359375 C 205.851562 -219.929688 208.164062 -222.023438 211.0625 -223.640625 C 213.96875 -225.253906 216.925781 -226.0625 219.9375 -226.0625 Z M 219.9375 -226.0625 "/></g></g></g><g fill="#ffca22" fill-opacity="1"><g transform="translate(942.582357, 304.48593)"><g><path d="M 64.5 -19.671875 C 64.5 -14.078125 62.457031 -9.398438 58.375 -5.640625 C 54.289062 -1.878906 49.5625 0 44.1875 0 C 38.375 0 33.585938 -1.878906 29.828125 -5.640625 C 26.066406 -9.398438 24.1875 -14.078125 24.1875 -19.671875 L 24.1875 -206.0625 C 24.1875 -211.65625 26.117188 -216.332031 29.984375 -220.09375 C 33.859375 -223.851562 38.804688 -225.734375 44.828125 -225.734375 C 50.203125 -225.734375 54.820312 -223.851562 58.6875 -220.09375 C 62.5625 -216.332031 64.5 -211.65625 64.5 -206.0625 Z M 64.5 -19.671875 "/></g></g></g><g fill="#ffca22" fill-opacity="1"><g transform="translate(1039.644761, 304.48593)"><g><path d="M 195.421875 -225.734375 C 200.585938 -225.734375 204.78125 -224.015625 208 -220.578125 C 211.226562 -217.140625 212.84375 -212.84375 212.84375 -207.6875 L 212.84375 -19.671875 C 212.84375 -14.078125 210.957031 -9.398438 207.1875 -5.640625 C 203.425781 -1.878906 198.753906 0 193.171875 0 C 190.160156 0 187.203125 -0.484375 184.296875 -1.453125 C 181.398438 -2.421875 179.304688 -3.765625 178.015625 -5.484375 L 59.65625 -155.765625 L 59.65625 -18.0625 C 59.65625 -12.894531 57.988281 -8.59375 54.65625 -5.15625 C 51.320312 -1.71875 46.96875 0 41.59375 0 C 36.4375 0 32.242188 -1.71875 29.015625 -5.15625 C 25.796875 -8.59375 24.1875 -12.894531 24.1875 -18.0625 L 24.1875 -206.0625 C 24.1875 -211.65625 26.066406 -216.332031 29.828125 -220.09375 C 33.585938 -223.851562 38.265625 -225.734375 43.859375 -225.734375 C 47.078125 -225.734375 50.242188 -225.085938 53.359375 -223.796875 C 56.484375 -222.515625 58.796875 -220.796875 60.296875 -218.640625 L 177.6875 -69.015625 L 177.6875 -207.6875 C 177.6875 -212.84375 179.351562 -217.140625 182.6875 -220.578125 C 186.019531 -224.015625 190.265625 -225.734375 195.421875 -225.734375 Z M 195.421875 -225.734375 "/></g></g></g><g fill="#ffca22" fill-opacity="1"><g transform="translate(1285.040449, 304.48593)"><g><path d="M 120.9375 -225.734375 C 141.144531 -225.734375 158.503906 -220.734375 173.015625 -210.734375 C 187.523438 -200.742188 198.59375 -187.203125 206.21875 -170.109375 C 213.851562 -153.015625 217.671875 -133.9375 217.671875 -112.875 C 217.671875 -91.800781 213.851562 -72.71875 206.21875 -55.625 C 198.59375 -38.53125 187.523438 -24.984375 173.015625 -14.984375 C 158.503906 -4.992188 141.144531 0 120.9375 0 L 43.859375 0 C 38.265625 0 33.585938 -1.878906 29.828125 -5.640625 C 26.066406 -9.398438 24.1875 -14.078125 24.1875 -19.671875 L 24.1875 -206.0625 C 24.1875 -211.65625 26.066406 -216.332031 29.828125 -220.09375 C 33.585938 -223.851562 38.265625 -225.734375 43.859375 -225.734375 Z M 117.703125 -37.078125 C 137.054688 -37.078125 151.566406 -44.222656 161.234375 -58.515625 C 170.910156 -72.816406 175.75 -90.9375 175.75 -112.875 C 175.75 -134.800781 170.859375 -152.910156 161.078125 -167.203125 C 151.296875 -181.503906 136.835938 -188.65625 117.703125 -188.65625 L 64.5 -188.65625 L 64.5 -37.078125 Z M 117.703125 -37.078125 "/></g></g></g><g fill="#ffca22" fill-opacity="1"><g transform="translate(1523.986858, 304.48593)"><g><path d="M 96.75 3.21875 C 81.269531 3.21875 67.507812 1.285156 55.46875 -2.578125 C 43.425781 -6.453125 32.140625 -13.007812 21.609375 -22.25 C 15.804688 -27.40625 12.90625 -33.101562 12.90625 -39.34375 C 12.90625 -44.289062 14.726562 -48.644531 18.375 -52.40625 C 22.03125 -56.164062 26.441406 -58.046875 31.609375 -58.046875 C 35.691406 -58.046875 39.34375 -56.753906 42.5625 -54.171875 C 51.164062 -47.078125 59.550781 -41.914062 67.71875 -38.6875 C 75.882812 -35.46875 85.5625 -33.859375 96.75 -33.859375 C 108.78125 -33.859375 119.148438 -36.546875 127.859375 -41.921875 C 136.566406 -47.296875 140.921875 -53.960938 140.921875 -61.921875 C 140.921875 -71.585938 136.617188 -79.160156 128.015625 -84.640625 C 119.421875 -90.128906 105.773438 -94.269531 87.078125 -97.0625 C 39.992188 -103.945312 16.453125 -125.878906 16.453125 -162.859375 C 16.453125 -176.398438 20 -188.164062 27.09375 -198.15625 C 34.1875 -208.15625 43.859375 -215.789062 56.109375 -221.0625 C 68.367188 -226.332031 82.019531 -228.96875 97.0625 -228.96875 C 110.613281 -228.96875 123.351562 -226.921875 135.28125 -222.828125 C 147.21875 -218.742188 157.160156 -213.375 165.109375 -206.71875 C 171.347656 -201.769531 174.46875 -196.070312 174.46875 -189.625 C 174.46875 -184.675781 172.640625 -180.320312 168.984375 -176.5625 C 165.328125 -172.800781 161.023438 -170.921875 156.078125 -170.921875 C 152.859375 -170.921875 149.957031 -171.882812 147.375 -173.8125 C 141.78125 -178.332031 133.984375 -182.472656 123.984375 -186.234375 C 113.992188 -189.992188 105.019531 -191.875 97.0625 -191.875 C 83.519531 -191.875 73.039062 -189.347656 65.625 -184.296875 C 58.207031 -179.242188 54.5 -172.632812 54.5 -164.46875 C 54.5 -155.21875 58.3125 -148.226562 65.9375 -143.5 C 73.570312 -138.769531 85.5625 -134.898438 101.90625 -131.890625 C 120.394531 -128.671875 135.175781 -124.535156 146.25 -119.484375 C 157.320312 -114.429688 165.648438 -107.550781 171.234375 -98.84375 C 176.828125 -90.132812 179.625 -78.578125 179.625 -64.171875 C 179.625 -50.628906 175.804688 -38.75 168.171875 -28.53125 C 160.546875 -18.320312 150.390625 -10.476562 137.703125 -5 C 125.015625 0.476562 111.363281 3.21875 96.75 3.21875 Z M 96.75 3.21875 "/></g></g></g></g></g></g><g fill="#8d9092" fill-opacity="1"><g transform="translate(302.49678, 533.142196)"><g><path d="M 33 -96.5 L 33 -67.46875 L 68.625 -67.46875 C 71.488281 -67.46875 73.878906 -66.5625 75.796875 -64.75 C 77.722656 -62.9375 78.6875 -60.597656 78.6875 -57.734375 C 78.6875 -55.316406 77.722656 -53.171875 75.796875 -51.296875 C 73.878906 -49.429688 71.488281 -48.5 68.625 -48.5 L 33 -48.5 L 33 -10.0625 C 33 -7.207031 31.976562 -4.816406 29.9375 -2.890625 C 27.90625 -0.960938 25.515625 0 22.765625 0 C 19.679688 0 17.175781 -0.929688 15.25 -2.796875 C 13.332031 -4.671875 12.375 -7.09375 12.375 -10.0625 L 12.375 -105.421875 C 12.375 -108.273438 13.332031 -110.664062 15.25 -112.59375 C 17.175781 -114.519531 19.570312 -115.484375 22.4375 -115.484375 L 76.046875 -115.484375 C 78.910156 -115.484375 81.300781 -114.570312 83.21875 -112.75 C 85.144531 -110.9375 86.109375 -108.601562 86.109375 -105.75 C 86.109375 -103.320312 85.144531 -101.171875 83.21875 -99.296875 C 81.300781 -97.429688 78.910156 -96.5 76.046875 -96.5 Z M 33 -96.5 "/></g></g></g><g fill="#8d9092" fill-opacity="1"><g transform="translate(399.484563, 533.142196)"><g><path d="M 118.609375 -57.734375 C 118.609375 -46.847656 116.1875 -36.867188 111.34375 -27.796875 C 106.507812 -18.722656 99.832031 -11.546875 91.3125 -6.265625 C 82.789062 -0.984375 73.191406 1.65625 62.515625 1.65625 C 51.847656 1.65625 42.253906 -0.984375 33.734375 -6.265625 C 25.210938 -11.546875 18.554688 -18.722656 13.765625 -27.796875 C 8.984375 -36.867188 6.59375 -46.847656 6.59375 -57.734375 C 6.59375 -68.628906 8.984375 -78.613281 13.765625 -87.6875 C 18.554688 -96.757812 25.210938 -103.929688 33.734375 -109.203125 C 42.253906 -114.484375 51.847656 -117.125 62.515625 -117.125 C 73.191406 -117.125 82.789062 -114.484375 91.3125 -109.203125 C 99.832031 -103.929688 106.507812 -96.757812 111.34375 -87.6875 C 116.1875 -78.613281 118.609375 -68.628906 118.609375 -57.734375 Z M 97.171875 -57.734375 C 97.171875 -65.109375 95.6875 -71.789062 92.71875 -77.78125 C 89.75 -83.78125 85.625 -88.535156 80.34375 -92.046875 C 75.0625 -95.566406 69.117188 -97.328125 62.515625 -97.328125 C 55.804688 -97.328125 49.835938 -95.59375 44.609375 -92.125 C 39.390625 -88.664062 35.320312 -83.910156 32.40625 -77.859375 C 29.5 -71.816406 28.046875 -65.109375 28.046875 -57.734375 C 28.046875 -50.367188 29.5 -43.660156 32.40625 -37.609375 C 35.320312 -31.566406 39.390625 -26.8125 44.609375 -23.34375 C 49.835938 -19.875 55.804688 -18.140625 62.515625 -18.140625 C 69.117188 -18.140625 75.0625 -19.898438 80.34375 -23.421875 C 85.625 -26.941406 89.75 -31.695312 92.71875 -37.6875 C 95.6875 -43.6875 97.171875 -50.367188 97.171875 -57.734375 Z M 97.171875 -57.734375 "/></g></g></g><g fill="#8d9092" fill-opacity="1"><g transform="translate(528.966245, 533.142196)"><g><path d="M 94.359375 -115.640625 C 97.222656 -115.640625 99.535156 -114.703125 101.296875 -112.828125 C 103.054688 -110.960938 103.9375 -108.546875 103.9375 -105.578125 L 103.9375 -45.859375 C 103.9375 -36.734375 102.007812 -28.648438 98.15625 -21.609375 C 94.300781 -14.566406 88.910156 -9.066406 81.984375 -5.109375 C 75.054688 -1.148438 67.140625 0.828125 58.234375 0.828125 C 49.328125 0.828125 41.378906 -1.148438 34.390625 -5.109375 C 27.410156 -9.066406 21.992188 -14.566406 18.140625 -21.609375 C 14.296875 -28.648438 12.375 -36.734375 12.375 -45.859375 L 12.375 -105.578125 C 12.375 -108.441406 13.363281 -110.832031 15.34375 -112.75 C 17.320312 -114.675781 19.851562 -115.640625 22.9375 -115.640625 C 25.570312 -115.640625 27.878906 -114.675781 29.859375 -112.75 C 31.835938 -110.832031 32.828125 -108.441406 32.828125 -105.578125 L 32.828125 -45.859375 C 32.828125 -40.578125 33.976562 -35.875 36.28125 -31.75 C 38.59375 -27.625 41.703125 -24.460938 45.609375 -22.265625 C 49.515625 -20.066406 53.722656 -18.96875 58.234375 -18.96875 C 62.960938 -18.96875 67.390625 -20.066406 71.515625 -22.265625 C 75.640625 -24.460938 78.9375 -27.625 81.40625 -31.75 C 83.882812 -35.875 85.125 -40.578125 85.125 -45.859375 L 85.125 -105.578125 C 85.125 -108.546875 85.945312 -110.960938 87.59375 -112.828125 C 89.25 -114.703125 91.503906 -115.640625 94.359375 -115.640625 Z M 94.359375 -115.640625 "/></g></g></g><g fill="#8d9092" fill-opacity="1"><g transform="translate(649.540953, 533.142196)"><g><path d="M 99.96875 -115.484375 C 102.613281 -115.484375 104.757812 -114.601562 106.40625 -112.84375 C 108.050781 -111.082031 108.875 -108.878906 108.875 -106.234375 L 108.875 -10.0625 C 108.875 -7.207031 107.910156 -4.816406 105.984375 -2.890625 C 104.066406 -0.960938 101.675781 0 98.8125 0 C 97.269531 0 95.753906 -0.242188 94.265625 -0.734375 C 92.785156 -1.234375 91.71875 -1.921875 91.0625 -2.796875 L 30.515625 -79.6875 L 30.515625 -9.234375 C 30.515625 -6.597656 29.660156 -4.398438 27.953125 -2.640625 C 26.253906 -0.878906 24.03125 0 21.28125 0 C 18.644531 0 16.5 -0.878906 14.84375 -2.640625 C 13.195312 -4.398438 12.375 -6.597656 12.375 -9.234375 L 12.375 -105.421875 C 12.375 -108.273438 13.332031 -110.664062 15.25 -112.59375 C 17.175781 -114.519531 19.570312 -115.484375 22.4375 -115.484375 C 24.082031 -115.484375 25.703125 -115.148438 27.296875 -114.484375 C 28.890625 -113.828125 30.070312 -112.945312 30.84375 -111.84375 L 90.890625 -35.296875 L 90.890625 -106.234375 C 90.890625 -108.878906 91.742188 -111.082031 93.453125 -112.84375 C 95.160156 -114.601562 97.332031 -115.484375 99.96875 -115.484375 Z M 99.96875 -115.484375 "/></g></g></g><g fill="#8d9092" fill-opacity="1"><g transform="translate(775.063937, 533.142196)"><g><path d="M 61.859375 -115.484375 C 72.203125 -115.484375 81.082031 -112.925781 88.5 -107.8125 C 95.925781 -102.695312 101.59375 -95.765625 105.5 -87.015625 C 109.40625 -78.273438 111.359375 -68.515625 111.359375 -57.734375 C 111.359375 -46.960938 109.40625 -37.203125 105.5 -28.453125 C 101.59375 -19.710938 95.925781 -12.785156 88.5 -7.671875 C 81.082031 -2.554688 72.203125 0 61.859375 0 L 22.4375 0 C 19.570312 0 17.175781 -0.960938 15.25 -2.890625 C 13.332031 -4.816406 12.375 -7.207031 12.375 -10.0625 L 12.375 -105.421875 C 12.375 -108.273438 13.332031 -110.664062 15.25 -112.59375 C 17.175781 -114.519531 19.570312 -115.484375 22.4375 -115.484375 Z M 60.21875 -18.96875 C 70.113281 -18.96875 77.535156 -22.625 82.484375 -29.9375 C 87.429688 -37.25 89.90625 -46.515625 89.90625 -57.734375 C 89.90625 -68.953125 87.398438 -78.21875 82.390625 -85.53125 C 77.390625 -92.84375 70 -96.5 60.21875 -96.5 L 33 -96.5 L 33 -18.96875 Z M 60.21875 -18.96875 "/></g></g></g><g fill="#8d9092" fill-opacity="1"><g transform="translate(897.288111, 533.142196)"><g><path d="M 102.9375 -12.875 C 103.488281 -11.4375 103.765625 -10.113281 103.765625 -8.90625 C 103.765625 -6.050781 102.828125 -3.710938 100.953125 -1.890625 C 99.085938 -0.078125 96.945312 0.828125 94.53125 0.828125 C 92.550781 0.828125 90.765625 0.222656 89.171875 -0.984375 C 87.578125 -2.191406 86.335938 -3.84375 85.453125 -5.9375 L 76.875 -25.90625 L 27.71875 -25.90625 L 19.140625 -5.78125 C 18.367188 -3.6875 17.1875 -2.0625 15.59375 -0.90625 C 14 0.25 12.265625 0.828125 10.390625 0.828125 C 7.535156 0.828125 5.363281 0.0546875 3.875 -1.484375 C 2.394531 -3.023438 1.65625 -5.113281 1.65625 -7.75 C 1.65625 -8.738281 1.816406 -9.785156 2.140625 -10.890625 L 43.21875 -109.546875 C 44.101562 -111.742188 45.425781 -113.445312 47.1875 -114.65625 C 48.945312 -115.863281 50.925781 -116.359375 53.125 -116.140625 C 55.101562 -116.140625 56.941406 -115.5625 58.640625 -114.40625 C 60.347656 -113.25 61.585938 -111.628906 62.359375 -109.546875 Z M 35.796875 -44.875 L 68.796875 -44.875 L 52.125 -83.46875 Z M 35.796875 -44.875 "/></g></g></g><g fill="#8d9092" fill-opacity="1"><g transform="translate(1006.976559, 533.142196)"><g><path d="M 88.265625 -115.484375 C 91.234375 -115.484375 93.648438 -114.601562 95.515625 -112.84375 C 97.390625 -111.082031 98.328125 -108.769531 98.328125 -105.90625 C 98.328125 -103.050781 97.390625 -100.769531 95.515625 -99.0625 C 93.648438 -97.351562 91.234375 -96.5 88.265625 -96.5 L 62.359375 -96.5 L 62.359375 -10.0625 C 62.359375 -7.207031 61.3125 -4.816406 59.21875 -2.890625 C 57.132812 -0.960938 54.550781 0 51.46875 0 C 48.382812 0 45.851562 -0.960938 43.875 -2.890625 C 41.894531 -4.816406 40.90625 -7.207031 40.90625 -10.0625 L 40.90625 -96.5 L 15.015625 -96.5 C 12.046875 -96.5 9.625 -97.378906 7.75 -99.140625 C 5.882812 -100.898438 4.953125 -103.210938 4.953125 -106.078125 C 4.953125 -108.828125 5.910156 -111.082031 7.828125 -112.84375 C 9.753906 -114.601562 12.148438 -115.484375 15.015625 -115.484375 Z M 88.265625 -115.484375 "/></g></g></g><g fill="#8d9092" fill-opacity="1"><g transform="translate(1114.52072, 533.142196)"><g><path d="M 33 -10.0625 C 33 -7.207031 31.953125 -4.816406 29.859375 -2.890625 C 27.765625 -0.960938 25.34375 0 22.59375 0 C 19.625 0 17.175781 -0.960938 15.25 -2.890625 C 13.332031 -4.816406 12.375 -7.207031 12.375 -10.0625 L 12.375 -105.421875 C 12.375 -108.273438 13.363281 -110.664062 15.34375 -112.59375 C 17.320312 -114.519531 19.851562 -115.484375 22.9375 -115.484375 C 25.6875 -115.484375 28.050781 -114.519531 30.03125 -112.59375 C 32.007812 -110.664062 33 -108.273438 33 -105.421875 Z M 33 -10.0625 "/></g></g></g><g fill="#8d9092" fill-opacity="1"><g transform="translate(1164.169773, 533.142196)"><g><path d="M 118.609375 -57.734375 C 118.609375 -46.847656 116.1875 -36.867188 111.34375 -27.796875 C 106.507812 -18.722656 99.832031 -11.546875 91.3125 -6.265625 C 82.789062 -0.984375 73.191406 1.65625 62.515625 1.65625 C 51.847656 1.65625 42.253906 -0.984375 33.734375 -6.265625 C 25.210938 -11.546875 18.554688 -18.722656 13.765625 -27.796875 C 8.984375 -36.867188 6.59375 -46.847656 6.59375 -57.734375 C 6.59375 -68.628906 8.984375 -78.613281 13.765625 -87.6875 C 18.554688 -96.757812 25.210938 -103.929688 33.734375 -109.203125 C 42.253906 -114.484375 51.847656 -117.125 62.515625 -117.125 C 73.191406 -117.125 82.789062 -114.484375 91.3125 -109.203125 C 99.832031 -103.929688 106.507812 -96.757812 111.34375 -87.6875 C 116.1875 -78.613281 118.609375 -68.628906 118.609375 -57.734375 Z M 97.171875 -57.734375 C 97.171875 -65.109375 95.6875 -71.789062 92.71875 -77.78125 C 89.75 -83.78125 85.625 -88.535156 80.34375 -92.046875 C 75.0625 -95.566406 69.117188 -97.328125 62.515625 -97.328125 C 55.804688 -97.328125 49.835938 -95.59375 44.609375 -92.125 C 39.390625 -88.664062 35.320312 -83.910156 32.40625 -77.859375 C 29.5 -71.816406 28.046875 -65.109375 28.046875 -57.734375 C 28.046875 -50.367188 29.5 -43.660156 32.40625 -37.609375 C 35.320312 -31.566406 39.390625 -26.8125 44.609375 -23.34375 C 49.835938 -19.875 55.804688 -18.140625 62.515625 -18.140625 C 69.117188 -18.140625 75.0625 -19.898438 80.34375 -23.421875 C 85.625 -26.941406 89.75 -31.695312 92.71875 -37.6875 C 95.6875 -43.6875 97.171875 -50.367188 97.171875 -57.734375 Z M 97.171875 -57.734375 "/></g></g></g><g fill="#8d9092" fill-opacity="1"><g transform="translate(1293.651455, 533.142196)"><g><path d="M 99.96875 -115.484375 C 102.613281 -115.484375 104.757812 -114.601562 106.40625 -112.84375 C 108.050781 -111.082031 108.875 -108.878906 108.875 -106.234375 L 108.875 -10.0625 C 108.875 -7.207031 107.910156 -4.816406 105.984375 -2.890625 C 104.066406 -0.960938 101.675781 0 98.8125 0 C 97.269531 0 95.753906 -0.242188 94.265625 -0.734375 C 92.785156 -1.234375 91.71875 -1.921875 91.0625 -2.796875 L 30.515625 -79.6875 L 30.515625 -9.234375 C 30.515625 -6.597656 29.660156 -4.398438 27.953125 -2.640625 C 26.253906 -0.878906 24.03125 0 21.28125 0 C 18.644531 0 16.5 -0.878906 14.84375 -2.640625 C 13.195312 -4.398438 12.375 -6.597656 12.375 -9.234375 L 12.375 -105.421875 C 12.375 -108.273438 13.332031 -110.664062 15.25 -112.59375 C 17.175781 -114.519531 19.570312 -115.484375 22.4375 -115.484375 C 24.082031 -115.484375 25.703125 -115.148438 27.296875 -114.484375 C 28.890625 -113.828125 30.070312 -112.945312 30.84375 -111.84375 L 90.890625 -35.296875 L 90.890625 -106.234375 C 90.890625 -108.878906 91.742188 -111.082031 93.453125 -112.84375 C 95.160156 -114.601562 97.332031 -115.484375 99.96875 -115.484375 Z M 99.96875 -115.484375 "/></g></g></g></g></g></svg>